<svg width="32" height="32" viewBox="0 0 32 32" fill="none" xmlns="http://www.w3.org/2000/svg">
<rect x="0.5" y="0.5" width="31" height="31" rx="1.5" fill="#004D99"/>
<path d="M16.9231 10.9231C16.9231 10.4125 16.5106 10 16 10C15.4894 10 15.0769 10.4125 15.0769 10.9231V15.0769H10.9231C10.4125 15.0769 10 15.4894 10 16C10 16.5106 10.4125 16.9231 10.9231 16.9231H15.0769V21.0769C15.0769 21.5875 15.4894 22 16 22C16.5106 22 16.9231 21.5875 16.9231 21.0769V16.9231H21.0769C21.5875 16.9231 22 16.5106 22 16C22 15.4894 21.5875 15.0769 21.0769 15.0769H16.9231V10.9231Z" fill="white"/>
<rect x="0.5" y="0.5" width="31" height="31" rx="1.5" stroke="#004D99"/>
</svg>
