<svg width="32" height="28" viewBox="0 0 32 28" fill="none" xmlns="http://www.w3.org/2000/svg">
<path d="M31.6427 24.0629L18.311 1.31206C17.2903 -0.438004 14.7146 -0.438004 13.6871 1.31206L0.361598 24.0629C-0.664064 25.8067 0.613419 28.0005 2.66918 28.0005H29.3326C31.3802 28.0005 32.6615 25.8129 31.6427 24.0629ZM14.4984 8.49982C14.4984 7.67166 15.1703 6.99976 15.9984 6.99976C16.8266 6.99976 17.4985 7.67479 17.4985 8.49982V16.5001C17.4985 17.3283 16.8266 18.0002 16.0547 18.0002C15.2828 18.0002 14.4984 17.3314 14.4984 16.5001V8.49982ZM15.9984 24.0004C14.9134 24.0004 14.0333 23.1203 14.0333 22.0353C14.0333 20.9503 14.9127 20.0702 15.9984 20.0702C17.0841 20.0702 17.9635 20.9503 17.9635 22.0353C17.961 23.1191 17.0859 24.0004 15.9984 24.0004Z" fill="#B8143D"/>
</svg>
