<svg width="32" height="32" viewBox="0 0 32 32" fill="none" xmlns="http://www.w3.org/2000/svg">
<path d="M23.4814 9.10947C24.1729 9.80003 24.1729 10.9197 23.4814 11.6102L22.5341 12.5607L19.4397 9.46691L20.3902 8.51775C21.0817 7.82709 22.1994 7.82709 22.8909 8.51775L23.4814 9.10947ZM13.4436 15.4656L18.7261 10.1811L21.8205 13.2743L16.5348 18.5568C16.3422 18.7526 16.1054 18.8978 15.8433 18.9862L13.0394 19.9209C12.7395 20.0093 12.4679 19.9398 12.2627 19.7093C12.0606 19.5325 11.9911 19.2325 12.0795 18.961L13.0142 16.1571C13.1026 15.895 13.2478 15.6582 13.4436 15.4656ZM14.0625 9.82623C14.6213 9.82623 15.0729 10.3071 15.0729 10.8366C15.0729 11.4239 14.6213 11.8471 14.0625 11.8471H11.0312C10.4733 11.8471 10.0208 12.327 10.0208 12.8575V20.9692C10.0208 21.528 10.4733 21.9796 11.0312 21.9796H19.1145C19.6734 21.9796 20.1249 21.528 20.1249 20.9692V17.9095C20.1249 17.379 20.5764 16.8991 21.1353 16.8991C21.6942 16.8991 22.1457 17.379 22.1457 17.9095V20.9692C22.1457 22.6427 20.788 24.0004 19.1145 24.0004H11.0312C9.35711 24.0004 8 22.6427 8 20.9692V12.8575C8 11.184 9.35711 9.82623 11.0312 9.82623H14.0625Z" fill="#004D99"/>
<rect x="0.5" y="0.5" width="31" height="31" rx="1.5" stroke="#004D99"/>
</svg>
