<svg width="32" height="32" viewBox="0 0 32 32" fill="none" xmlns="http://www.w3.org/2000/svg">
<rect x="13" y="10" width="6" height="15" fill="black"/>
<path d="M27.732 23.5471L17.7332 6.48404C16.9677 5.1715 15.036 5.1715 14.2653 6.48404L4.2712 23.5471C3.50195 24.855 4.46006 26.5004 6.00189 26.5004H25.9995C27.5352 26.5004 28.4961 24.8597 27.732 23.5471ZM14.8738 11.8749C14.8738 11.2537 15.3777 10.7498 15.9988 10.7498C16.6199 10.7498 17.1238 11.2561 17.1238 11.8749V17.8751C17.1238 18.4962 16.6199 19.0001 16.041 19.0001C15.4621 19.0001 14.8738 18.4985 14.8738 17.8751V11.8749ZM15.9988 23.5003C15.185 23.5003 14.525 22.8402 14.525 22.0265C14.525 21.2127 15.1846 20.5527 15.9988 20.5527C16.8131 20.5527 17.4726 21.2127 17.4726 22.0265C17.4707 22.8393 16.8145 23.5003 15.9988 23.5003Z" fill="#F5C73D"/>
</svg>
