<svg width="64" height="64" viewBox="0 0 64 64" fill="none" xmlns="http://www.w3.org/2000/svg">
<path fill-rule="evenodd" clip-rule="evenodd" d="M44 12C45.1046 12 46 12.8954 46 14V50C46 51.1046 45.1046 52 44 52H19C17.8954 52 17 51.1046 17 50V14C17 12.8954 17.8954 12 19 12H33V14.7273H34V12H35V14.7273H36V12H37V14.7273H38V12H39V14.7273H40V12H41V14.7273H42V12H43V14.7273H44V12Z" fill="#1A1A1A"/>
<path fill-rule="evenodd" clip-rule="evenodd" d="M33 12H34V15H33V12ZM36 12H35V15H36V12ZM37 12H38V15H37V12ZM40 12H39V15H40V12ZM41 12H42V15H41V12ZM43 12H44V15H43V12ZM20.5 31C21.3284 31 22 30.3284 22 29.5C22 28.6716 21.3284 28 20.5 28C19.6716 28 19 28.6716 19 29.5C19 30.3284 19.6716 31 20.5 31ZM42.5 31C43.3284 31 44 30.3284 44 29.5C44 28.6716 43.3284 28 42.5 28C41.6716 28 41 28.6716 41 29.5C41 30.3284 41.6716 31 42.5 31ZM22 48.5C22 49.3284 21.3284 50 20.5 50C19.6716 50 19 49.3284 19 48.5C19 47.6716 19.6716 47 20.5 47C21.3284 47 22 47.6716 22 48.5ZM42.5 50C43.3284 50 44 49.3284 44 48.5C44 47.6716 43.3284 47 42.5 47C41.6716 47 41 47.6716 41 48.5C41 49.3284 41.6716 50 42.5 50ZM42 38.5C42 44.299 37.299 49 31.5 49C25.701 49 21 44.299 21 38.5C21 32.701 25.701 28 31.5 28C37.299 28 42 32.701 42 38.5ZM34 38.5C34 39.8807 32.8807 41 31.5 41C30.1193 41 29 39.8807 29 38.5C29 37.1193 30.1193 36 31.5 36C32.8807 36 34 37.1193 34 38.5ZM31.4844 46C31.6528 46 31.8199 45.9944 31.9855 45.9835V46.9855C31.8201 46.9951 31.6534 47 31.4855 47C26.959 47 23.2588 43.4617 23 39H24.0008C24.2581 42.909 27.5103 46 31.4844 46Z" fill="#E6E6E6"/>
<path opacity="0.3" fill-rule="evenodd" clip-rule="evenodd" d="M17 16.9993L46 45.9981V14C46 12.8954 45.1046 12 44 12V14.7273H43V12H42V14.7273H41V12H40V14.7273H39V12H38V14.7273H37V12H36V14.7273H35V12H34V14.7273H33V12H19C17.8954 12 17 12.8954 17 14V16.9993Z" fill="url(#paint0_linear_4739_12871)"/>
<path opacity="0.3" fill-rule="evenodd" clip-rule="evenodd" d="M28.4492 28.4496L41.549 41.5488C41.8413 40.5839 41.9984 39.5603 41.9984 38.5C41.9984 32.701 37.2974 28 31.4984 28C30.438 28 29.4142 28.1572 28.4492 28.4496ZM33.9984 12H32.9984V15H33.9984V12ZM34.9984 12H35.9984V15H34.9984V12ZM37.9984 12H36.9984V15H37.9984V12ZM38.9984 12H39.9984V15H38.9984V12ZM41.9984 12H40.9984V15H41.9984V12ZM43.9984 12H42.9984V15H43.9984V12ZM43.9984 29.5C43.9984 30.3284 43.3268 31 42.4984 31C41.67 31 40.9984 30.3284 40.9984 29.5C40.9984 28.6716 41.67 28 42.4984 28C43.3268 28 43.9984 28.6716 43.9984 29.5Z" fill="url(#paint1_linear_4739_12871)"/>
<defs>
<linearGradient id="paint0_linear_4739_12871" x1="32" y1="32" x2="64" y2="-1.19209e-07" gradientUnits="userSpaceOnUse">
<stop stop-color="white"/>
<stop offset="1" stop-color="white" stop-opacity="0"/>
</linearGradient>
<linearGradient id="paint1_linear_4739_12871" x1="32" y1="32" x2="64" y2="-2.63431e-06" gradientUnits="userSpaceOnUse">
<stop stop-color="white"/>
<stop offset="1" stop-color="white" stop-opacity="0"/>
</linearGradient>
</defs>
</svg>
