<svg width="64" height="64" viewBox="0 0 64 64" fill="none" xmlns="http://www.w3.org/2000/svg">
<path fill-rule="evenodd" clip-rule="evenodd" d="M43.5 14L14.5 17.5L14 47L45 48L43.5 14ZM49 16L44.5 14L46 48L50.5 46.5L49 16ZM20 48.1211L16 48V48.9336V49.7461L20 49.8672V48.9336V48.1211ZM40 49L44 49.1211V49.9336V50.8672L40 50.7461V49.9336V49Z" fill="#1A1A1A"/>
<path fill-rule="evenodd" clip-rule="evenodd" d="M40.7903 17L17.4032 19.8636L17 44L42 44.5L40.7903 17ZM48 40C48.5523 40 49 39.1046 49 38C49 36.8954 48.5523 36 48 36C47.4477 36 47 36.8954 47 38C47 39.1046 47.4477 40 48 40Z" fill="#E6E6E6"/>
<path opacity="0.3" fill-rule="evenodd" clip-rule="evenodd" d="M44.8604 44.8615L17.1758 17.1769L43.4989 14L44.8604 44.8615ZM45.9065 45.9077L44.4989 14L48.9989 16L50.4989 46.5L47.4989 47.5L45.9065 45.9077Z" fill="url(#paint0_linear_4739_12876)"/>
<path opacity="0.3" fill-rule="evenodd" clip-rule="evenodd" d="M41.8835 41.885L19.5938 19.5952L40.7888 17L41.8835 41.885ZM48.9985 38C48.9985 39.1046 48.5508 40 47.9985 40C47.4462 40 46.9985 39.1046 46.9985 38C46.9985 36.8954 47.4462 36 47.9985 36C48.5508 36 48.9985 36.8954 48.9985 38Z" fill="url(#paint1_linear_4739_12876)"/>
<defs>
<linearGradient id="paint0_linear_4739_12876" x1="32" y1="32" x2="64" y2="2.98023e-08" gradientUnits="userSpaceOnUse">
<stop stop-color="white"/>
<stop offset="1" stop-color="white" stop-opacity="0"/>
</linearGradient>
<linearGradient id="paint1_linear_4739_12876" x1="32" y1="32" x2="64" y2="-3.22539e-06" gradientUnits="userSpaceOnUse">
<stop stop-color="white"/>
<stop offset="1" stop-color="white" stop-opacity="0"/>
</linearGradient>
</defs>
</svg>
