<svg width="24" height="24" viewBox="0 0 24 24" fill="none" xmlns="http://www.w3.org/2000/svg">
<mask id="mask0_99_1939" style="mask-type:alpha" maskUnits="userSpaceOnUse" x="0" y="1" width="24" height="22">
<rect y="1.5" width="24" height="21" fill="#D9D9D9"/>
</mask>
<g mask="url(#mask0_99_1939)">
<circle cx="12" cy="14" r="11.5" fill="#22262A" stroke="#22262A"/>
<circle cx="12" cy="14" r="10.5" fill="#22262A" stroke="white"/>
<path d="M4.5 21.1154C10.3842 21.1154 13.6158 21.1154 19.5 21.1154" stroke="white" stroke-linecap="square"/>
<circle cx="12" cy="14" r="1" fill="white"/>
<path d="M20 14H22" stroke="white" stroke-width="1.75" stroke-linecap="round"/>
<path d="M4 14H2" stroke="white" stroke-width="1.75" stroke-linecap="round"/>
<path d="M12 6V4" stroke="white" stroke-width="1.75" stroke-linecap="round"/>
<path d="M17.6569 8.34314L19.0711 6.92893" stroke="white" stroke-width="1.75" stroke-linecap="round"/>
<path d="M6.34317 19.6568L4.92896 21.071" stroke="white" stroke-width="1.75" stroke-linecap="round"/>
<path d="M6.34317 8.34317L4.92896 6.92896" stroke="white" stroke-width="1.75" stroke-linecap="round"/>
<path d="M19.0711 21.0711L17.6569 19.6569" stroke="white" stroke-width="1.75" stroke-linecap="round"/>
<path d="M18 8L11.5 13.2L12.8 14.5L18 8Z" fill="white"/>
<path d="M4.15381 22.1154H19.8461" stroke="#22262A" stroke-linecap="square"/>
</g>
</svg>
