<svg width="64" height="64" viewBox="0 0 64 64" fill="none" xmlns="http://www.w3.org/2000/svg">
<g clip-path="url(#clip0_126_6507)">
<path fill-rule="evenodd" clip-rule="evenodd" d="M36.6429 40.3254C36.5992 40.3254 36.5547 40.3243 36.5096 40.3222H26.8645C25.5451 40.3222 25.02 39.9447 24.5236 38.6393L21.5739 29.2414C21.2287 28.4118 21.3161 27.4681 21.8077 26.7171L31.593 14.0468C35.3066 14.0697 38.8706 15.2147 41.9004 17.3577C44.9305 19.5009 47.1949 22.4787 48.4488 25.969L38.6634 39.1996C38.1948 39.7843 37.6257 40.3254 36.6429 40.3254ZM25.601 26.0157V29.8961H29.6272V36.4885H33.5131L33.5131 29.8961H37.5393V26.0157H25.601Z" fill="#4D4D4D"/>
<path fill-rule="evenodd" clip-rule="evenodd" d="M48.4488 25.9221L38.6634 39.2C38.1016 39.9013 37.493 40.3688 36.5097 40.3221H26.8648C25.6007 40.3221 25.0389 39.9948 24.5239 38.639L21.5742 29.2416C21.2292 28.4132 21.3168 27.4679 21.8083 26.7169L31.5936 14C21.5447 14 13.4744 22.0589 13.4744 32C13.4744 41.9411 21.5447 50 31.5 50C41.4446 49.9743 49.4999 41.9305 49.5258 32C49.5345 29.9259 49.1697 27.8672 48.4488 25.9221Z" fill="#B3B3B3"/>
<path fill-rule="evenodd" clip-rule="evenodd" d="M25.601 26.0156L37.5392 26.0156V29.896H33.5131V36.4885H29.6271V29.896H25.601V26.0156Z" fill="white"/>
</g>
<defs>
<clipPath id="clip0_126_6507">
<rect width="37" height="36" fill="white" transform="translate(13 14)"/>
</clipPath>
</defs>
</svg>
