<svg width="24" height="24" viewBox="0 0 24 24" fill="none" xmlns="http://www.w3.org/2000/svg">
<mask id="mask0_70_37587" style="mask-type:alpha" maskUnits="userSpaceOnUse" x="0" y="1" width="24" height="22">
<rect y="1.5" width="24" height="21" fill="#D9D9D9"/>
</mask>
<g mask="url(#mask0_70_37587)">
<circle cx="12" cy="14" r="11.5" fill="#22262A" stroke="#22262A"/>
<circle cx="12" cy="14" r="10.5" fill="#22262A" stroke="white"/>
<path d="M4.5 21.1154C10.3842 21.1154 13.6158 21.1154 19.5 21.1154" stroke="white" stroke-linecap="square"/>
<circle cx="12" cy="14" r="1" fill="white"/>
<path d="M20 14H22" stroke="white" stroke-width="1.75" stroke-linecap="round"/>
<path d="M4 14H2" stroke="white" stroke-width="1.75" stroke-linecap="round"/>
<path d="M12 6V4" stroke="white" stroke-width="1.75" stroke-linecap="round"/>
<path d="M17.6569 8.34314L19.0711 6.92893" stroke="white" stroke-width="1.75" stroke-linecap="round"/>
<path d="M6.34317 19.6568L4.92896 21.071" stroke="white" stroke-width="1.75" stroke-linecap="round"/>
<path d="M6.34317 8.34317L4.92896 6.92896" stroke="white" stroke-width="1.75" stroke-linecap="round"/>
<path d="M19.0711 21.0711L17.6569 19.6569" stroke="white" stroke-width="1.75" stroke-linecap="round"/>
<path d="M18 8L11.5 13.2L12.8 14.5L18 8Z" fill="white"/>
<path d="M4.15381 22.1154H19.8461" stroke="#22262A" stroke-linecap="square"/>
<rect x="16.6942" y="11" width="7" height="8" transform="rotate(5 16.6942 11)" fill="#22262A"/>
<path d="M18.304 11.6897L18.3052 11.6888C18.7985 11.3384 19.4262 11.1484 20.2188 11.1484C20.9069 11.1484 21.5161 11.3691 22.064 11.8226L22.6985 12.3479L22.8716 11.5426L23.1841 10.0895L23.2572 9.74971L22.9642 9.56282C22.2054 9.07887 21.2916 8.85156 20.25 8.85156C19.1609 8.85156 18.1534 9.0994 17.2372 9.60009C15.8441 10.3582 14.9519 11.5741 14.5507 13.1953H14.0469H13.6406L13.5574 13.593L13.3387 14.6399L13.2128 15.2422H13.8281H14.345C14.3452 15.2526 14.3453 15.263 14.3455 15.2734H14.0469H13.6406L13.5574 15.6712L13.3387 16.718L13.2128 17.3203H13.8281H14.6257C14.7309 17.7419 14.8525 18.1199 14.9923 18.4518L14.9926 18.4526C15.4414 19.5138 16.1095 20.3353 17.0055 20.8868C17.898 21.436 18.9808 21.6953 20.2266 21.6953C21.0787 21.6953 21.8702 21.5313 22.5933 21.1957L22.8828 21.0614V20.7422V19.1328V17.9822L22.0417 18.7673C21.6126 19.1677 20.9883 19.3984 20.1016 19.3984C19.4943 19.3984 18.9348 19.2434 18.4135 18.9306C17.8647 18.6014 17.4573 18.0806 17.2153 17.3203H21.2266H21.6329L21.716 16.9226L21.9347 15.8757L22.0606 15.2734H21.4453H16.9066C16.9065 15.2632 16.9065 15.2528 16.9065 15.2422H21.6562H22.0656L22.1464 14.8409L22.3573 13.7941L22.478 13.1953H21.8672H17.1819C17.2541 13.0101 17.3524 12.8142 17.4796 12.6073C17.739 12.1926 18.0161 11.893 18.304 11.6897Z" fill="white" stroke="#22262A"/>
</g>
</svg>
