<svg width="64" height="64" viewBox="0 0 64 64" fill="none" xmlns="http://www.w3.org/2000/svg">
<path fill-rule="evenodd" clip-rule="evenodd" d="M23 17H25V20H23V17ZM43 21H21V43H43V21ZM41 23H23V41H41V23ZM25 44H23V47H25V44ZM44 41V39H47V41H44ZM17 39V41H20V39H17ZM27 17H29V20H27V17ZM29 44H27V47H29V44ZM44 37V35H47V37H44ZM17 35V37H20V35H17ZM31 17H33V20H31V17ZM33 44H31V47H33V44ZM44 33V31H47V33H44ZM17 31V33H20V31H17ZM35 17H37V20H35V17ZM37 44H35V47H37V44ZM44 29V27H47V29H44ZM17 27V29H20V27H17ZM39 17H41V20H39V17ZM41 44H39V47H41V44ZM44 25V23H47V25H44ZM17 23V25H20V23H17Z" fill="#E6E6E6"/>
<path fill-rule="evenodd" clip-rule="evenodd" d="M14 12C12.8954 12 12 12.8954 12 14V50C12 51.1046 12.8954 52 14 52H50C51.1046 52 52 51.1046 52 50V14C52 12.8954 51.1046 12 50 12H14ZM25 17H23V20H25V17ZM21 21H43V43H21V21ZM23 23H41V41H23V23ZM23 44H25V47H23V44ZM44 39V41H47V39H44ZM17 41V39H20V41H17ZM29 17H27V20H29V17ZM27 44H29V47H27V44ZM44 35V37H47V35H44ZM17 37V35H20V37H17ZM33 17H31V20H33V17ZM31 44H33V47H31V44ZM44 31V33H47V31H44ZM17 33V31H20V33H17ZM37 17H35V20H37V17ZM35 44H37V47H35V44ZM44 27V29H47V27H44ZM17 29V27H20V29H17ZM41 17H39V20H41V17ZM39 44H41V47H39V44ZM44 23V25H47V23H44ZM17 25V23H20V25H17Z" fill="#1A1A1A"/>
<path opacity="0.3" fill-rule="evenodd" clip-rule="evenodd" d="M42.9991 42.9982V21H21L23.0001 23H40.9991V40.9983L42.9991 42.9982ZM24.9991 17H22.9991V20H24.9991V17ZM43.9991 39V41H46.9991V39H43.9991ZM28.9991 17H26.9991V20H28.9991V17ZM43.9991 35V37H46.9991V35H43.9991ZM32.9991 17H30.9991V20H32.9991V17ZM43.9991 31V33H46.9991V31H43.9991ZM36.9991 17H34.9991V20H36.9991V17ZM43.9991 27V29H46.9991V27H43.9991ZM40.9991 17H38.9991V20H40.9991V17ZM43.9991 23V25H46.9991V23H43.9991Z" fill="url(#paint0_linear_4739_12878)"/>
<path opacity="0.3" fill-rule="evenodd" clip-rule="evenodd" d="M51.4152 51.4131C51.7765 51.0513 51.9999 50.5517 51.9999 50V14C51.9999 12.8954 51.1045 12 49.9999 12H13.9999C13.4477 12 12.9478 12.2237 12.5859 12.5855L21.0008 21H42.9999V42.9982L51.4152 51.4131ZM23.0009 23L40.9999 40.9983V23H23.0009ZM22.9999 17H24.9999V20H22.9999V17ZM43.9999 41V39H46.9999V41H43.9999ZM26.9999 17H28.9999V20H26.9999V17ZM43.9999 37V35H46.9999V37H43.9999ZM30.9999 17H32.9999V20H30.9999V17ZM43.9999 33V31H46.9999V33H43.9999ZM34.9999 17H36.9999V20H34.9999V17ZM43.9999 29V27H46.9999V29H43.9999ZM38.9999 17H40.9999V20H38.9999V17ZM43.9999 25V23H46.9999V25H43.9999Z" fill="url(#paint1_linear_4739_12878)"/>
<defs>
<linearGradient id="paint0_linear_4739_12878" x1="32" y1="32" x2="64" y2="0" gradientUnits="userSpaceOnUse">
<stop stop-color="white"/>
<stop offset="1" stop-color="white" stop-opacity="0"/>
</linearGradient>
<linearGradient id="paint1_linear_4739_12878" x1="32" y1="32" x2="64" y2="-4.03663e-06" gradientUnits="userSpaceOnUse">
<stop stop-color="white"/>
<stop offset="1" stop-color="white" stop-opacity="0"/>
</linearGradient>
</defs>
</svg>
