<svg width="64" height="64" viewBox="0 0 64 64" fill="none" xmlns="http://www.w3.org/2000/svg">
<path fill-rule="evenodd" clip-rule="evenodd" d="M8 14H11H13V16V23H15V19H56V49H53V51H52V50H51V51H50V50H49V51H48V50H47V51H46V50H45V51H44V50H43V51H42V50H41V51H40V50H39V51H38V50H37V51H36V50H35V51H34V50H33V51H32V49H17V51H15V47H13V51H11V16H8V14ZM15 45V25H13V45H15Z" fill="#1A1A1A"/>
<path fill-rule="evenodd" clip-rule="evenodd" d="M50 26H35V41H50V26ZM49 27H36V40H49V27ZM33 28H34V29H33V28ZM52 28H51V29H52V28ZM33 30H34V31H33V30ZM52 30H51V31H52V30ZM33 32H34V33H33V32ZM52 32H51V33H52V32ZM33 34H34V35H33V34ZM52 34H51V35H52V34ZM33 36H34V37H33V36ZM52 36H51V37H52V36ZM33 38H34V39H33V38ZM52 38H51V39H52V38Z" fill="#808080"/>
<path opacity="0.3" fill-rule="evenodd" clip-rule="evenodd" d="M19 19H56V49H53V51H52V50H51V51L50 50L19 19Z" fill="url(#paint0_linear_4739_12881)"/>
<path opacity="0.3" fill-rule="evenodd" clip-rule="evenodd" d="M41 41H50V26H35V35L36 36V27H49V40H40L41 41ZM33 33H34V32H33V33ZM34 28H33V29H34V28ZM51 28H52V29H51V28ZM34 30H33V31H34V30ZM51 30H52V31H51V30ZM51 32H52V33H51V32ZM51 34H52V35H51V34ZM51 36H52V37H51V36ZM51 38H52V39H51V38Z" fill="url(#paint1_linear_4739_12881)"/>
<defs>
<linearGradient id="paint0_linear_4739_12881" x1="32" y1="32" x2="64" y2="0" gradientUnits="userSpaceOnUse">
<stop stop-color="white"/>
<stop offset="1" stop-color="white" stop-opacity="0"/>
</linearGradient>
<linearGradient id="paint1_linear_4739_12881" x1="32" y1="32" x2="64" y2="0" gradientUnits="userSpaceOnUse">
<stop stop-color="white"/>
<stop offset="1" stop-color="white" stop-opacity="0"/>
</linearGradient>
</defs>
</svg>
